<svg xmlns="http://www.w3.org/2000/svg" width="256" height="256"><path fill-opacity=".016" d="M0 128.004v128.004l128.25-.254 128.25-.254.254-127.75L257.008 0H0v128.004m.485.496c0 70.4.119 99.053.265 63.672.146-35.38.146-92.98 0-128C.604 29.153.485 58.1.485 128.5" fill="#1976D2" fill-rule="evenodd"/><path fill-opacity=".251" d="M73 79c0 .55-1.073 1-2.383 1-4.587 0-4.057 9.401.579 10.287 2.042.391 1.991.456-.446.577-2.208.109-2.75.615-2.75 2.566 0 1.726.653 2.557 2.25 2.864 1.929.372 1.858.453-.5.57-2.85.141-4.074 3.136-1.281 3.136.894 0 1.243.586.893 1.5-.381.991.054 1.523 1.281 1.568 1.471.053 1.337.302-.643 1.196-3.342 1.509-3.291 1.456-2.557 2.644.432.698 1.864.559 4.35-.421 3.211-1.267 4.242-1.274 7.707-.053 3.799 1.339 4.126 1.292 6.5-.942l2.5-2.351 2.894 2.505c4.063 3.518 5.544 1.033 1.587-2.664-2.777-2.594-2.816-2.771-1.461-6.574.766-2.149 1.412-5.371 1.436-7.158C92.98 87.463 93.45 86 94 86s1-.675 1-1.5c0-1.072-1.092-1.5-3.829-1.5-3.276 0-3.818-.311-3.75-2.149.13-3.526-2.18-3.251-2.901.346-1.716 8.555-2.478 9.812-5.848 9.653-2.869-.135-2.919-.189-.528-.556 2.86-.44 3.972-3.235 3.101-7.794-.351-1.834-1.113-2.5-2.862-2.5-1.31 0-2.383-.45-2.383-1s-.675-1-1.5-1-1.5.45-1.5 1m50.506.187c-.264.722-.598 6.713-.743 13.313l-.263 12-2.695.311c-1.866.216-2.526.754-2.143 1.75.646 1.685 3.656 1.875 6.404.404 1.764-.945 1.934-2.211 1.934-14.441 0-7.921-.412-13.661-1.007-14.028-.554-.343-1.223-.032-1.487.691m9.494 2.73c0 3.416-.327 4.083-2 4.083-1.1 0-2 .492-2 1.094 0 .601.9 1.329 2 1.616 1.647.431 2 1.364 2 5.29 0 4.091-.316 4.849-2.233 5.351-1.69.442-1.952.864-1.076 1.74.876.876 1.964.876 4.473.002 2.229-.778 3.428-.818 3.659-.124.189.567 1.769 1.06 3.51 1.095l3.167.064-3.25 1.617c-3.391 1.688-3.973 2.69-2.196 3.788 1.252.774 8.011-3.618 7.312-4.751-.266-.43.743-.782 2.242-.782s2.429.296 2.067.658c-.805.806 5.525 5.307 6.575 4.675 1.463-.88.714-2.289-2-3.761l-2.75-1.492 3.25-.04c2.204-.027 3.25-.523 3.25-1.54 0-.825-.675-1.5-1.5-1.5-1.19 0-1.5-1.444-1.5-7v-7h-3c-1.65 0-3-.45-3-1s1.8-1 4-1 4-.45 4-1-1.8-1-4-1c-2.889 0-4-.417-4-1.5 0-.825-.675-1.5-1.5-1.5s-1.5.675-1.5 1.5c0 1.083-1.111 1.5-4 1.5-2.2 0-4 .45-4 1s1.8 1 4 1 4 .45 4 1-1.35 1-3 1h-3v7c0 4-.429 7-1 7-.55 0-1-.498-1-1.107s-.675-.848-1.5-.531c-1.195.458-1.5-.332-1.5-3.893 0-3.306.39-4.469 1.5-4.469.825 0 1.5-.675 1.5-1.5s-.648-1.5-1.44-1.5c-.935 0-1.548-1.287-1.75-3.673-.445-5.275-2.81-5.621-2.81-.41m40-2.417c0 1.152-1.278 1.5-5.5 1.5H162v3.5c0 2.444.452 3.5 1.5 3.5.833 0 1.5-.889 1.5-2 0-1.551.667-2 2.969-2 4.042 0 3.03 2.45-2.092 5.063-4.044 2.063-5.086 3.937-2.189 3.937 2.349 0 7.989-4.027 9.442-6.742 1.843-3.444 3.708-2.758 4.06 1.492l.31 3.75 5.25.302c3.199.184 5.25-.109 5.25-.75 0-.578-1.8-1.052-4-1.052-3.778 0-4-.167-4-3 0-2.667.333-3 3-3 2.333 0 3 .444 3 2 0 1.147.667 2 1.563 2 1.162 0 1.483-.836 1.25-3.25-.313-3.25-.313-3.25-6.563-3.548-4.661-.222-6.25-.667-6.25-1.75 0-.798-.675-1.452-1.5-1.452s-1.5.675-1.5 1.5m-74 2c0 .833.889 1.5 2 1.5 2.693 0 2.556 2.565-.399 7.446-2.703 4.465-2.528 7.15.349 5.353 1.353-.845 2.285-.748 3.936.409 2.16 1.513 2.157 1.52-1.861 5.151-5.852 5.286-5.061 7.939 1.067 3.576 3.788-2.698 7.631-9.35 8.484-14.685l.68-4.25h-3.628c-5.392 0-4.916-2.79.544-3.193 2.295-.169 4.358-.869 4.584-1.557.306-.931-1.653-1.25-7.673-1.25-6.518 0-8.083.29-8.083 1.5m17.215 9.75c.37 13.296 2.189 13.123 2.57-.245.243-8.546.056-10.005-1.285-10.005-1.343 0-1.529 1.482-1.285 10.25M71 83c0 .55.45 1 1 1s1-.45 1-1-.45-1-1-1-1 .45-1 1m5 0c0 .55.45 1 1 1s1-.45 1-1-.45-1-1-1-1 .45-1 1m9.71 5c-.287 1.1-.171 2 .259 2 .429 0 1.1 1.463 1.491 3.25.627 2.875.807 3.019 1.554 1.25.465-1.1.877-3.463.916-5.25.055-2.541-.341-3.25-1.813-3.25-1.043 0-2.117.893-2.407 2m60.554-.282c1.52.229 3.77.223 5-.014 1.23-.237-.014-.425-2.764-.418-2.75.008-3.756.202-2.236.432m-41.921 2.83c-.344.897.195 2.131 1.282 2.933 2.078 1.535 2.823 1.101 3.83-2.231.583-1.931.311-2.25-1.919-2.25-1.429 0-2.866.697-3.193 1.548m41.921 1.17c1.52.229 3.77.223 5-.014 1.23-.237-.014-.425-2.764-.418-2.75.008-3.756.202-2.236.432m-75.451 1.965c.721.289 1.584.253 1.916-.079.332-.332-.258-.568-1.312-.525-1.165.048-1.402.285-.604.604m6 0c.721.289 1.584.253 1.916-.079.332-.332-.258-.568-1.312-.525-1.165.048-1.402.285-.604.604m4.908 1.031c.344.898-.67 1.327-3.364 1.422-2.607.092-3.047.27-1.357.549 5.111.844 5.357 1.122 3.503 3.951-1.412 2.155-1.475 2.767-.358 3.474 2.028 1.286 2.533 1.115 4.645-1.571 1.623-2.063 1.768-2.998.895-5.785-.645-2.064-1.689-3.325-2.749-3.325-.981 0-1.499.547-1.215 1.285M144 94.75c0 .412 2.025.75 4.5.75s4.5-.338 4.5-.75-2.025-.75-4.5-.75-4.5.338-4.5.75m20 .75c0 1.133 1.222 1.5 5 1.5h5V103.905l-6.25.297c-11.477.547-6.24 2.288 7.747 2.576 11.568.239 13.503.059 13.503-1.25 0-1.201-1.284-1.528-6-1.528h-6v-3.5c0-3.481.024-3.5 4.5-3.5 3.333 0 4.5-.389 4.5-1.5 0-1.242-1.889-1.5-11-1.5s-11 .258-11 1.5m-17.736 3.218c1.52.229 3.77.223 5-.014 1.23-.237-.014-.425-2.764-.418-2.75.008-3.756.202-2.236.432M73.8 101.2c.933.933 1.467.933 2.4 0 .933-.933.667-1.2-1.2-1.2s-2.133.267-1.2 1.2M0 159.511v18.497l128.25-.254 128.25-.254.271-18.5.271-18.5-128.521.258L0 141.015v18.496M.078 159l-.08 18.5 18.001-.294L36 176.913V143H18.583c-12.997 0-17.544-.317-17.921-1.25-.277-.687-.54 7.075-.584 17.25M38 160v17h34v-34H38v17m36 0v17h35v-34H74v17m37-13v4h34v-8h-34v4m36.103 13v17H182v-34H147.103v17M184 160v17h35v-34h-35v17m37 0v17h34v-34h-34v17m-109.333-7.333c-.367.366-.667 3.966-.667 8V168h34v-16h-16.333c-8.984 0-16.634.3-17 .667m-94.715 4.384c-.996.63-1.06.923-.202.934.688.008 1.25 1.14 1.25 2.515 0 1.375.45 2.5 1 2.5 1.182 0 1.362-5.658.202-6.375-.439-.271-1.451-.08-2.25.426m36.715-.384c-1.292 1.291-.647 2.263 1.083 1.632 1.559-.568 1.54-.399-.176 1.555-2.265 2.579-.898 4.927 2.109 3.624 1.745-.756 1.745-.805.014-1.216-1.424-.339-1.558-.724-.638-1.833 1.911-2.302-.329-5.826-2.392-3.762m36.034-.035c-1.18 1.18-.779 2.612.585 2.089.749-.288 1.285.245 1.285 1.279 0 1.034-.536 1.567-1.285 1.279-.707-.271-1.286-.043-1.286.507 0 1.346 2.411 2.196 3.798 1.339 1.642-1.015.946-6.551-.867-6.9-.841-.162-1.844.021-2.23.407m23.723 1.815c-.752 2.997 1.027 5.701 3.203 4.866 2.107-.809 1.411-6.695-.841-7.121-1.147-.217-1.929.529-2.362 2.255M163 158c0 1.111.667 2 1.5 2 .825 0 1.5.498 1.5 1.107s-.713.834-1.584.499c-1.005-.385-1.431-.151-1.166.643.642 1.926 3.178 1.481 3.585-.629.199-1.034-.245-2.265-.987-2.735-.998-.633-1.024-.858-.098-.87.688-.008 1.25-.465 1.25-1.015 0-.55-.9-1-2-1-1.333 0-2 .667-2 2m37.2-.8c-1.6 1.6-1.521 4.289.167 5.69 1.044.866 1.686.752 2.713-.486 1.147-1.382 1.065-1.825-.559-3.012-1.047-.766-1.367-1.392-.712-1.392s1.191-.45 1.191-1c0-1.356-1.34-1.26-2.8.2m36.129.25c1.486 1.126 1.62 1.777.715 3.468-.767 1.432-.784 2.082-.054 2.082 1.002 0 3.01-4.046 3.01-6.065 0-.514-1.238-.921-2.75-.903-2.559.029-2.623.128-.921 1.418M115.158 160c0 1.375.227 1.938.504 1.25.278-.687.278-1.812 0-2.5-.277-.687-.504-.125-.504 1.25M111 173v4h34v-8h-34v4" fill="#1976D2" fill-rule="evenodd"/><path fill-opacity=".351" d="M173.812 78.521c-.371.371-.432 1.306-.136 2.077.425 1.108-.741 1.402-5.569 1.402H162v3c0 1.65.45 3 1 3s1-.9 1-2c0-1.619.667-2 3.5-2 1.925 0 3.5.38 3.5.845 0 1.155-2.905 3.6-6.393 5.383-1.764.901-2.458 1.746-1.779 2.166 1.637 1.012 6.808-1.983 9.342-5.411 2.986-4.038 4.643-3.785 5.02.767l.31 3.75 5.25.302c3.199.184 5.25-.109 5.25-.75 0-.578-1.8-1.052-4-1.052-3.778 0-4-.167-4-3 0-2.667.333-3 3-3 2.373 0 3 .435 3 2.083 0 3.021 2.436 1.801 2.816-1.41.312-2.633.228-2.673-5.628-2.673-4.908 0-6.184-.362-7.323-2.077-.758-1.142-1.682-1.773-2.053-1.402M72 79.699c-2.627.408-5.956 5.482-4.021 6.127.562.188 1.021.978 1.021 1.757 0 .779.873 1.417 1.941 1.417s2.219.45 2.559 1c.361.583-.656 1-2.441 1-2.596 0-3.059.378-3.059 2.5 0 2.015.496 2.5 2.559 2.5 1.451 0 2.292.433 1.941 1-.34.55-1.716 1-3.059 1-1.343 0-2.441.45-2.441 1s.675 1 1.5 1 1.5.638 1.5 1.417.563 1.625 1.25 1.88c.688.256-.098 1.021-1.75 1.703-3.957 1.634-1.499 2.485 2.942 1.019 2.272-.75 4.078-.813 5.259-.185 2.785 1.48 7.645.521 9.199-1.815l1.401-2.105 2.839 2.72c3.686 3.532 5.048 2.215 1.519-1.469l-2.696-2.813 1.768-6.926c.973-3.809 2.107-7.076 2.519-7.259.412-.184.75-.971.75-1.75C95 83.424 93.768 83 90.883 83c-3.624 0-4.054-.239-3.593-2 .314-1.202.03-2-.712-2-.679 0-1.751 2.138-2.382 4.75-.632 2.612-1.452 5.823-1.824 7.134-.507 1.791-.327 2.267.726 1.913.944-.317 1.798.858 2.613 3.593 1.103 3.697 1.019 4.268-.924 6.337-2.308 2.456-3.503 2.739-5.699 1.348-1.194-.755-1.155-1.151.25-2.556C81.784 99.073 81.376 98 78 98c-1.65 0-3-.45-3-1s1.35-1 3-1c2.533 0 3-.389 3-2.5 0-2-.5-2.5-2.5-2.5-1.375 0-2.5-.45-2.5-1s1.073-1 2.383-1c1.583 0 2.569-.708 2.935-2.107.727-2.78-.891-6.893-2.711-6.893-.794 0-2.043-.155-2.775-.345-.733-.19-2.457-.17-3.832.044M123 92v13h-2.5c-1.375 0-2.5.45-2.5 1 0 1.703 6.719 1.174 7.393-.582.334-.87.607-7.17.607-14C126 81.046 125.753 79 124.5 79c-1.256 0-1.5 2.111-1.5 13m10-9.5c0 2.444-.452 3.5-1.5 3.5-.825 0-1.5.675-1.5 1.5s.675 1.5 1.5 1.5c1.133 0 1.5 1.222 1.5 5s-.367 5-1.5 5c-.825 0-1.5.675-1.5 1.5 0 1.786.089 1.797 3.647.444 1.878-.714 3.435-.731 4.815-.051 1.121.552 2.938 1.176 4.038 1.386 1.782.34 1.7.526-.75 1.712-1.512.731-2.75 1.708-2.75 2.17 0 1.704 3.166.764 5.591-1.661 1.375-1.375 3.131-2.5 3.903-2.5.772 0 2.617 1.125 4.101 2.5 1.483 1.375 3.419 2.486 4.301 2.468 1.161-.022.829-.713-1.202-2.5L152.888 102h2.556c1.605 0 2.556-.558 2.556-1.5 0-.825-.45-1.5-1-1.5-.571 0-1-3-1-7v-7h-3c-1.65 0-3-.45-3-1s1.575-1 3.5-1 3.5-.45 3.5-1-1.575-1-3.5-1-3.5-.45-3.5-1-.675-1-1.5-1-1.5.45-1.5 1-1.575 1-3.5 1-3.5.45-3.5 1 1.575 1 3.5 1 3.5.45 3.5 1-1.35 1-3 1h-3v7c0 4-.429 7-1 7-.55 0-1-.48-1-1.067 0-.613-.853-.797-2-.433-1.801.572-2 .18-2-3.933 0-3.31.397-4.567 1.441-4.567 2.396 0 2.911-2.095.66-2.684-1.612-.421-2.101-1.336-2.101-3.933 0-1.86-.45-3.383-1-3.383s-1 1.575-1 3.5M99 81c0 .55 1.173 1 2.607 1 1.966 0 2.458.389 2 1.582-.334.87-.607 2.157-.607 2.86 0 .704-1.087 2.88-2.415 4.837-2.41 3.552-2.407 5.648.006 3.645.919-.762 1.992-.588 3.842.624 1.412.925 2.567 1.924 2.567 2.221 0 .296-1.828 2.225-4.061 4.288-4.961 4.58-3.511 6.262 1.56 1.81 4.249-3.731 7.37-9.398 7.738-14.053.244-3.072.026-3.337-2.987-3.627-2.44-.236-3.25-.796-3.25-2.25 0-1.593.71-1.937 4-1.937 2.2 0 4-.45 4-1 0-.578-3.167-1-7.5-1s-7.5.422-7.5 1m18 10c0 6 .4 10 1 10s1-4 1-10-.4-10-1-10-1 4-1 10m-46-8c0 .55.675 1 1.5 1s1.5-.45 1.5-1-.675-1-1.5-1-1.5.45-1.5 1m5 0c0 .55.675 1 1.5 1s1.5-.45 1.5-1-.675-1-1.5-1-1.5.45-1.5 1m-5 4c0 .55.423 1 .941 1s1.219-.45 1.559-1c.34-.55-.084-1-.941-1S71 86.45 71 87m5 0c0 .55.423 1 .941 1s1.219-.45 1.559-1c.34-.55-.084-1-.941-1S76 86.45 76 87m9.59.627c-.344.894-.229 2.132.255 2.75.484.618 1.215 2.473 1.625 4.123.662 2.666.829 2.777 1.495 1 .413-1.1 1.06-3.687 1.438-5.75.641-3.496.522-3.75-1.751-3.75-1.341 0-2.719.732-3.062 1.627M144 88c0 .55 2.025 1 4.5 1s4.5-.45 4.5-1-2.025-1-4.5-1-4.5.45-4.5 1m-40.361 2.498c-.352.919.392 2.131 1.924 3.135 2.878 1.886 3.037 1.81 3.964-1.885.638-2.54.463-2.748-2.312-2.748-1.743 0-3.242.628-3.576 1.498M144 91c0 .55 2.025 1 4.5 1s4.5-.45 4.5-1-2.025-1-4.5-1-4.5.45-4.5 1m-73.25 2.662c.688.278 1.813.278 2.5 0 .688-.277.125-.504-1.25-.504s-1.937.227-1.25.504m6.063.021c.721.289 1.584.253 1.916-.079.332-.332-.258-.568-1.312-.525-1.165.048-1.402.285-.604.604M144 95c0 .55 2.025 1 4.5 1s4.5-.45 4.5-1-2.025-1-4.5-1-4.5.45-4.5 1m20 1c0 .55 2.25 1 5 1h5v7h-6c-3.333 0-6 .444-6 1 0 .613 4.833 1 12.5 1h13c.275 0 .613-.338.75-.75s-2.562-.884-6-1.048l-6.25-.297V97h5c2.75 0 5-.45 5-1 0-.606-4.333-1-11-1s-11 .394-11 1m-20 2.25c0 .412 2.025.75 4.5.75s4.5-.338 4.5-.75-2.025-.75-4.5-.75-4.5.338-4.5.75M73 101c0 1.264 2.043 1.264 4 0 1.169-.755.893-.973-1.25-.985-1.513-.008-2.75.435-2.75.985M0 159.511v18.497l128.25-.254 128.25-.254.271-18.5.271-18.5-128.521.258L0 141.015v18.496m-.002-.011v18l18.001-.294L36 176.913v-34.826l-18.001-.293-18.001-.294v18M38 159.476V177h35.047l-.273-17.25-.274-17.25-17.25-.274-17.25-.273v17.523m36 .024V177h35v-35H74v17.5m37-.024V177h34.566l-.038-17.25-.038-17.25-17.245-.274-17.245-.273v17.523m36 .024V177h35v-35h-35v17.5m37 0V177h35v-35h-35v17.5m36.667-16.833c-.367.366-.667 8.241-.667 17.5V177h35v-35h-16.833c-9.259 0-17.134.3-17.5.667M53.485 157.025c-.349.563-.263.96.191.881 2.18-.378 2.419.3.916 2.594-1.583 2.416-1.562 2.497.635 2.421 1.25-.043 1.692-.312.981-.597-.986-.396-1.018-.847-.138-1.909 1.248-1.503.602-4.415-.98-4.415-.534 0-1.257.461-1.605 1.025m36.95.081c-.506.818-.32.941.58.384.957-.591 1.151-.365.699.814-.345.898-.114 1.949.513 2.336.753.466.484.983-.793 1.524-1.885.798-1.886.813-.016.578 1.193-.151 1.98-1.098 2.084-2.507.2-2.735-1.953-4.932-3.067-3.129m24.163-.37c-.329.328-.598 1.905-.598 3.504 0 3.819 3.355 3.492 3.804-.371.289-2.48-1.809-4.53-3.206-3.133m49.069-.069c-1.218 1.218-.689 3.333.833 3.333.825 0 1.5.498 1.5 1.107s-.675.848-1.5.531c-.825-.316-1.5-.139-1.5.393 0 .533.9.969 2 .969 1.333 0 2-.667 2-2 0-1.178-.667-2-1.622-2-1.329 0-1.398-.271-.378-1.5 1.202-1.449.02-2.187-1.333-.833m73.656.036c1.093.283 1.594 1.038 1.25 1.884-1.496 3.688-1.57 4.683-.178 2.413 2.161-3.522 1.964-5.018-.645-4.884-1.804.093-1.889.209-.427.587M17.787 160c.242 1.65.614 3 .826 3 .213 0 .387-1.35.387-3s-.372-3-.827-3c-.455 0-.628 1.35-.386 3m97.213-.559c0 1.407.45 2.559 1 2.559s1-.873 1-1.941-.45-2.219-1-2.559c-.567-.351-1 .49-1 1.941m84.503-.45c-.748 2.357.075 4.009 1.997 4.009 2.218 0 2.951-2.197 1.168-3.501-.9-.658-1.344-1.49-.986-1.848.358-.358.157-.651-.448-.651s-1.384.896-1.731 1.991M200.5 161c.34.55.816 1 1.059 1s.441-.45.441-1-.477-1-1.059-1-.781.45-.441 1" fill="#1976D2" fill-rule="evenodd"/><path fill-opacity=".984" d="M73.554 79.913c-.37.598-1.545 1.087-2.613 1.087S69 81.675 69 82.5s-.408 1.5-.906 1.5c-.498 0-.386 1.121.25 2.492.728 1.57 1.988 2.495 3.406 2.5C72.987 88.996 74 89.45 74 90s-1.35 1-3 1c-2.533 0-3 .389-3 2.5 0 2.015.496 2.5 2.559 2.5 3.383 0 2.128 1.959-1.368 2.136-2.466.125-2.497.173-.365.58 1.485.283 2.133.948 1.792 1.837-.294.767.234 1.824 1.174 2.35 1.483.831 1.328 1.101-1.181 2.055-1.588.604-2.65 1.337-2.358 1.629.292.291 2.073-.114 3.957-.902 2.95-1.232 3.8-1.235 6.108-.026 2.901 1.52 3.806.069.953-1.527-1.639-.918-1.639-1.068 0-2.879C81.745 98.52 81.453 98 77.441 98c-2.118 0-3.309-.405-2.941-1 .34-.55 1.941-1 3.559-1 2.47 0 2.941-.4 2.941-2.5 0-2.122-.463-2.5-3.059-2.5-1.785 0-2.802-.417-2.441-1 .34-.55 1.491-1 2.559-1S80 88.362 80 87.583s.511-1.587 1.136-1.795C82.77 85.243 79.954 81 77.959 81c-.857 0-2.048-.489-2.646-1.087-.783-.783-1.275-.783-1.759 0m10.572 4.837c-.701 3.162-1.539 6.425-1.863 7.25-.476 1.215-.309 1.27.878.291 1.232-1.017 1.664-.468 2.71 3.44 1.141 4.267 1.068 4.888-.892 7.538-2.728 3.69-2.028 4.497 1.055 1.216l2.354-2.506 2.806 2.688c3.644 3.491 5.003 2.171 1.514-1.471l-2.667-2.783 1.551-7.435c.852-4.09 2.085-7.776 2.739-8.191.654-.416-.723-.763-3.061-.772-3.863-.014-4.25-.243-4.25-2.515 0-4.431-1.564-2.663-2.874 3.25m40.091 5.418c-.119 6.418-.49 12.38-.824 13.25-.334.87-1.684 1.582-3 1.582s-2.393.45-2.393 1c0 1.487 5.982 1.211 6.563-.303.275-.716.358-7.129.186-14.25l-.314-12.947-.218 11.668m9.16-7.515c.136 2.876-.247 3.762-1.799 4.168-1.916.501-1.917.534-.063 1.184 1.583.556 1.861 1.505 1.634 5.582-.157 2.802-.892 5.39-1.712 6.023-2.33 1.8-1.659 2.314 1.746 1.338C137.009 99.85 139.217 98 136.7 98c-1.373 0-1.7-.961-1.7-5 0-4.084.321-5.006 1.75-5.03 1.667-.029 1.667-.079 0-1.05-1.132-.659-1.75-2.239-1.75-4.47 0-1.897-.404-3.45-.897-3.45-.494 0-.82 1.644-.726 3.653m14.702-2.903c-.049.779-1.588 1.25-4.079 1.25-2.2 0-4 .45-4 1s1.8 1 4 1 4 .45 4 1-1.35 1-3 1h-3v6.95c0 5.565-.349 7.154-1.75 7.97-1.272.741.979 1.019 8.25 1.019s9.522-.278 8.25-1.019c-1.401-.816-1.75-2.405-1.75-7.97V85h-3c-1.65 0-3-.45-3-1s1.8-1 4-1 4-.45 4-1-1.762-1-3.917-1c-2.197 0-4.138-.549-4.421-1.25-.403-1-.52-1-.583 0m25.559.75c.473 1.232-.513 1.5-5.531 1.5H162v3c0 1.65.45 3 1 3s1-.9 1-2c0-1.681.667-2 4.174-2h4.175l-2.425 2.627c-1.333 1.446-3.718 3.184-5.3 3.863-1.582.68-2.464 1.491-1.96 1.802 1.59.983 7.596-2.582 9.25-5.49.995-1.751 2.424-2.792 3.836-2.796 1.959-.005 2.25.511 2.25 3.994v4h4.5c5.432 0 6.033-1.752.75-2.19-3.256-.269-3.792-.672-4.066-3.06-.293-2.545-.051-2.75 3.25-2.75 2.899 0 3.566.374 3.566 2 0 1.1.45 2 1 2s1-1.35 1-3c0-2.994-.012-3-5.893-3-4.316 0-6.047-.401-6.469-1.5-.316-.825-1.025-1.5-1.575-1.5s-.741.675-.425 1.5M99 81c0 .55 1.125 1 2.5 1 3.238 0 3.235 2.172-.012 7.852-2.825 4.942-3.222 7.002-.993 5.152 1.205-1 1.981-.922 4 .401 1.378.903 2.505 2.046 2.505 2.54 0 .495-1.829 2.465-4.064 4.378-4.932 4.221-3.742 5.79 1.262 1.665 3.681-3.034 6.591-8.118 7.855-13.723l.736-3.265h-4.001c-3.238 0-3.886-.302-3.395-1.582.334-.87.607-1.995.607-2.5 0-.505 1.8-.918 4-.918s4-.45 4-1c0-.578-3.167-1-7.5-1s-7.5.422-7.5 1m18 9.941c0 6.039.4 10.059 1 10.059.596 0 1-3.814 1-9.441 0-5.215-.448-9.718-1-10.059-.641-.396-1 2.99-1 9.441M70 83c0 .55.9 1 2 1s2-.45 2-1-.9-1-2-1-2 .45-2 1m5 0c0 .55.9 1 2 1s2-.45 2-1-.9-1-2-1-2 .45-2 1m-4.312 2.646C69.383 86.95 70.006 88 72.083 88c1.164 0 1.909-.524 1.688-1.187-.487-1.462-2.157-2.094-3.083-1.167m4.808.361c-.343.554.1 1.285.984 1.624 1.914.734 2.981-.075 2.061-1.564-.83-1.344-2.235-1.371-3.045-.06m10.477.525c-1.03 1.242-1.02 2.296.054 5.551.73 2.209 1.672 4.231 2.096 4.493.873.54 2.863-5.922 2.871-9.326.007-2.66-3.047-3.096-5.021-.718M143 88c0 .55 2.223 1 4.941 1s5.219-.45 5.559-1c.384-.621-1.49-1-4.941-1-3.057 0-5.559.45-5.559 1m-39.044 2.082c-.905 1.691-.771 2.342.715 3.468 1.006.763 2.347 1.401 2.981 1.418 1.282.036 3.521-5.462 2.6-6.383-1.367-1.367-5.258-.442-6.296 1.497m39.576.867c-.751 1.214-.915 1.172 4.968 1.265 2.475.04 4.613-.33 4.75-.821.358-1.28-8.939-1.705-9.718-.444M70 93.573c0 .932.68 1.442 1.667 1.25 2.509-.486 2.853-2.823.416-2.823-1.228 0-2.083.646-2.083 1.573m5.694-.934c-.933.934.194 2.361 1.865 2.361.793 0 1.441-.675 1.441-1.5 0-1.506-2.111-2.056-3.306-.861M143 95c0 .55 2.475 1 5.5 1s5.5-.45 5.5-1-2.475-1-5.5-1-5.5.45-5.5 1m22 1c0 .55 2.025 1 4.5 1 4.476 0 4.5.019 4.5 3.5v3.5h-6c-3.333 0-6 .444-6 1 0 .615 5 1 13 1s13-.385 13-1c0-.556-2.667-1-6-1h-6v-3.5c0-3.475.032-3.5 4.441-3.5 2.443 0 4.719-.45 5.059-1 .397-.643-3.156-1-9.941-1-6.373 0-10.559.396-10.559 1m-21.473 1.956c-.359.582.002 1.31.804 1.618 2.246.862 9.169.051 9.169-1.074 0-1.366-9.156-1.865-9.973-.544m-70.86 1.711c-1.166 1.165-.725 2.085 1.249 2.601 1.863.487 4.084-.854 4.084-2.468 0-.965-4.392-1.075-5.333-.133M141 105c-1.375 1.076-2.14 1.966-1.7 1.978 1.081.03 6.7-2.908 6.7-3.504 0-1.105-2.683-.287-5 1.526m12.459-.036c1.628 1.073 3.202 1.708 3.499 1.412.765-.766-3.032-3.377-4.899-3.369-.938.004-.381.783 1.4 1.957M.415 160c0 10.175.149 14.338.33 9.25.182-5.088.182-13.413 0-18.5-.181-5.088-.33-.925-.33 9.25m35.778-.25c-.106 10.037.144 18.251.557 18.252.413.001.633-5.512.489-12.25-.475-22.324-.851-24.482-1.046-6.002m36.601.251c-.162 9.901.044 18.001.456 18 .412 0 .75-8.101.75-18.001s-.205-18-.456-18-.589 8.101-.75 18.001m36.206-.168c0 9.992.351 18.167.78 18.167.969 0 .898-34.655-.074-35.627-.388-.389-.706 7.469-.706 17.46m37.415.167c0 10.175.149 14.338.33 9.25.182-5.088.182-13.413 0-18.5-.181-5.088-.33-.925-.33 9.25m36.085 0c0 9.9.338 18 .75 18s.75-8.1.75-18-.338-18-.75-18-.75 8.1-.75 18m36.915 0c0 10.175.149 14.338.33 9.25.182-5.088.182-13.413 0-18.5-.181-5.088-.33-.925-.33 9.25m-53.851.293c.376.986.935 1.541 1.243 1.233.308-.307.001-1.114-.683-1.793-.988-.98-1.102-.865-.56.56" fill="#1976D2" fill-rule="evenodd"/></svg>